<svg width="24" height="23" viewBox="0 0 24 23" fill="none" xmlns="http://www.w3.org/2000/svg">
<path fill-rule="evenodd" clip-rule="evenodd" d="M5.72529 15.4882L0.625402 20.4682C0.397646 20.7153 0.408871 21.0935 0.6509 21.3272L1.54338 22.1987C1.66308 22.3166 1.82602 22.3829 1.996 22.3829C2.16597 22.3829 2.32891 22.3166 2.44861 22.1987L7.5485 17.2188C7.68955 17.0809 7.81757 16.9309 7.93099 16.7706L8.88722 15.5256C10.4694 16.7593 12.4341 17.431 14.4589 17.4304C18.6311 17.4446 22.2566 14.6342 23.1889 10.6631C24.1213 6.69199 22.1117 2.62002 18.3499 0.857903C14.5881 -0.904216 10.0781 0.113795 7.48985 3.30924C4.90162 6.50469 4.92598 11.0248 7.5485 14.1934L6.27353 15.0525C6.07442 15.1769 5.89049 15.3231 5.72529 15.4882ZM20.8336 8.71488C20.8336 12.1528 17.9795 14.9398 14.4588 14.9398C12.768 14.9398 11.1466 14.284 9.95104 13.1166C8.75553 11.9492 8.08389 10.3658 8.08389 8.71488C8.08389 5.27693 10.938 2.48992 14.4588 2.48992C17.9795 2.48992 20.8336 5.27693 20.8336 8.71488Z" fill="#EEEEEE"/>
</svg>
